<svg xmlns="http://www.w3.org/2000/svg" xmlns:xlink="http://www.w3.org/1999/xlink" width="500" zoomAndPan="magnify" viewBox="0 0 375 374.999991" height="500" preserveAspectRatio="xMidYMid meet" version="1.0"><rect x="-37.5" width="450" fill="#ffffff" y="-37.499999" height="449.999989" fill-opacity="1"/><rect x="-37.5" width="450" fill="#ffffff" y="-37.499999" height="449.999989" fill-opacity="1"/><rect x="-37.5" width="450" fill="#ffffff" y="-37.499999" height="449.999989" fill-opacity="1"/><path fill="#95bf47" d="M 102.03125 147.265625 C 101.984375 146.972656 101.851562 146.722656 101.636719 146.519531 C 101.417969 146.316406 101.164062 146.199219 100.867188 146.171875 C 100.398438 146.097656 90.167969 145.390625 90.167969 145.390625 L 82.367188 137.597656 C 81.664062 136.816406 80.105469 137.046875 79.519531 137.210938 C 79.441406 137.210938 77.960938 137.675781 75.539062 138.460938 C 73.183594 131.660156 69.015625 125.417969 61.679688 125.417969 L 61.054688 125.417969 C 58.949219 122.699219 56.375 121.445312 54.195312 121.445312 C 37.109375 121.519531 28.960938 142.8125 26.386719 153.695312 L 14.445312 157.355469 C 10.78125 158.523438 10.640625 158.609375 10.15625 162.097656 L 0.0898438 239.679688 L 75.566406 253.792969 L 116.472656 244.984375 C 116.472656 244.910156 102.109375 148.007812 102.035156 147.273438 Z M 71.355469 139.773438 C 69.453125 140.398438 67.253906 141.023438 64.957031 141.726562 L 64.957031 140.324219 C 65.03125 136.816406 64.5 133.320312 63.398438 129.984375 C 67.222656 130.574219 69.796875 134.863281 71.355469 139.773438 Z M 58.792969 130.886719 C 60.039062 134.5625 60.65625 138.433594 60.5 142.320312 L 60.5 143.019531 L 47.304688 147.117188 C 49.886719 137.480469 54.648438 132.71875 58.785156 130.925781 Z M 53.722656 126.144531 C 54.503906 126.164062 55.261719 126.40625 55.90625 126.84375 C 50.402344 129.40625 44.582031 135.871094 42.085938 148.816406 L 31.648438 152.011719 C 34.59375 142.1875 41.460938 126.121094 53.714844 126.121094 Z M 53.722656 126.144531 " fill-opacity="1" fill-rule="nonzero"/><path fill="#5e8e3e" d="M 100.871094 146.167969 C 100.402344 146.09375 90.171875 145.386719 90.171875 145.386719 L 82.371094 137.59375 C 82.082031 137.296875 81.691406 137.132812 81.277344 137.128906 L 75.582031 253.777344 L 116.488281 244.96875 L 102.039062 147.332031 C 101.941406 146.734375 101.472656 146.257812 100.875 146.164062 Z M 100.871094 146.167969 " fill-opacity="1" fill-rule="nonzero"/><path fill="#ffffff" d="M 61.675781 168.78125 L 56.601562 183.753906 C 53.53125 182.261719 50.175781 181.46875 46.765625 181.40625 C 38.800781 181.40625 38.417969 186.398438 38.417969 187.648438 C 38.417969 194.460938 56.289062 197.085938 56.289062 213.148438 C 56.289062 225.78125 48.25 233.894531 37.476562 233.894531 C 24.519531 233.894531 17.886719 225.859375 17.886719 225.859375 L 21.328125 214.390625 C 21.328125 214.390625 28.113281 220.238281 33.898438 220.238281 C 34.246094 220.25 34.589844 220.230469 34.929688 220.171875 C 35.269531 220.117188 35.605469 220.027344 35.925781 219.902344 C 36.25 219.78125 36.558594 219.625 36.847656 219.4375 C 37.140625 219.253906 37.410156 219.039062 37.660156 218.796875 C 37.90625 218.558594 38.128906 218.292969 38.324219 218.007812 C 38.519531 217.722656 38.679688 217.421875 38.816406 217.101562 C 38.949219 216.78125 39.046875 216.453125 39.113281 216.113281 C 39.179688 215.773438 39.210938 215.433594 39.207031 215.085938 C 39.207031 206.113281 24.53125 205.722656 24.53125 191.066406 C 24.53125 178.738281 33.425781 166.730469 51.304688 166.730469 C 58.328125 166.835938 61.6875 168.777344 61.6875 168.777344 Z M 61.675781 168.78125 " fill-opacity="1" fill-rule="nonzero"/><path fill="#000000" d="M 151.992188 191.082031 C 149.070312 189.515625 147.5625 188.164062 147.5625 186.316406 C 147.5625 183.96875 149.613281 182.453125 152.941406 182.453125 C 155.4375 182.507812 157.828125 183.03125 160.117188 184.019531 L 162.808594 175.851562 C 162.808594 175.851562 160.339844 173.941406 153.109375 173.941406 C 143.023438 173.941406 136.015625 179.714844 136.015625 187.828125 C 136.015625 192.414062 139.265625 195.945312 143.632812 198.460938 C 147.164062 200.511719 148.40625 201.867188 148.40625 204.003906 C 148.40625 206.140625 146.667969 207.925781 143.359375 207.925781 C 138.488281 207.925781 133.894531 205.40625 133.894531 205.40625 L 131.039062 213.578125 C 131.039062 213.578125 135.296875 216.429688 142.414062 216.429688 C 152.777344 216.429688 160.230469 211.335938 160.230469 202.128906 C 160.289062 197.148438 156.53125 193.675781 152.03125 191.042969 Z M 193.34375 173.894531 C 188.246094 173.894531 184.210938 176.304688 181.125 180.023438 L 180.953125 179.96875 L 185.382812 156.820312 L 173.84375 156.820312 L 162.636719 215.773438 L 174.179688 215.773438 L 178.046875 195.617188 C 179.558594 188.003906 183.5 183.296875 187.179688 183.296875 C 189.75 183.296875 190.765625 185.035156 190.765625 187.554688 C 190.765625 189.269531 190.59375 190.96875 190.261719 192.648438 L 185.894531 215.714844 L 197.4375 215.714844 L 201.976562 191.882812 C 202.472656 189.414062 202.761719 186.90625 202.816406 184.398438 C 202.761719 177.902344 199.34375 173.984375 193.347656 173.984375 Z M 228.871094 173.894531 C 214.972656 173.894531 205.78125 186.4375 205.78125 200.335938 C 205.78125 209.296875 211.328125 216.460938 221.699219 216.460938 C 235.328125 216.460938 244.5625 204.253906 244.5625 190.019531 C 244.5625 181.734375 239.691406 173.894531 228.886719 173.894531 Z M 223.203125 207.652344 C 219.277344 207.652344 217.601562 204.300781 217.601562 200.167969 C 217.601562 193.5625 221.007812 182.757812 227.300781 182.757812 C 231.390625 182.757812 232.753906 186.285156 232.753906 189.703125 C 232.738281 196.796875 229.324219 207.652344 223.210938 207.652344 Z M 274.085938 173.894531 C 266.257812 173.894531 261.867188 180.703125 261.867188 180.703125 L 261.695312 180.703125 L 262.378906 174.574219 L 252.152344 174.574219 L 249.804688 189.859375 L 241.789062 232.074219 L 253.28125 232.074219 L 256.480469 214.996094 L 256.703125 214.996094 C 256.703125 214.996094 259.050781 216.507812 263.488281 216.507812 C 277.050781 216.507812 285.902344 202.625 285.902344 188.59375 C 285.957031 180.867188 282.496094 173.929688 274.078125 173.929688 Z M 263.042969 207.820312 C 262.171875 207.839844 261.328125 207.703125 260.503906 207.414062 C 259.683594 207.121094 258.941406 206.699219 258.273438 206.136719 L 260.179688 195.332031 C 261.546875 188.160156 265.28125 183.347656 269.3125 183.347656 C 272.84375 183.347656 273.90625 186.59375 273.90625 189.675781 C 273.925781 197.1875 269.507812 207.824219 263.058594 207.824219 Z M 302.445312 157.324219 C 300.679688 157.3125 298.980469 158.011719 297.738281 159.265625 C 296.496094 160.523438 295.804688 162.222656 295.875 163.988281 C 295.875 167.394531 298.0625 169.761719 301.328125 169.761719 L 301.5 169.761719 C 301.945312 169.777344 302.386719 169.75 302.824219 169.679688 C 303.265625 169.605469 303.695312 169.488281 304.109375 169.328125 C 304.523438 169.167969 304.921875 168.964844 305.292969 168.726562 C 305.667969 168.484375 306.015625 168.207031 306.332031 167.894531 C 306.652344 167.582031 306.933594 167.242188 307.179688 166.871094 C 307.429688 166.5 307.636719 166.109375 307.804688 165.695312 C 307.972656 165.285156 308.09375 164.859375 308.175781 164.421875 C 308.253906 163.980469 308.289062 163.539062 308.277344 163.09375 C 308.277344 159.742188 306.035156 157.324219 302.5 157.324219 Z M 286.320312 215.660156 L 297.863281 215.660156 L 305.707031 174.808594 L 294.121094 174.808594 M 335.125 174.75 L 327.0625 174.75 L 327.457031 172.84375 C 328.140625 168.921875 330.484375 165.398438 334.273438 165.398438 C 335.535156 165.398438 336.769531 165.582031 337.972656 165.957031 L 340.203125 156.933594 C 340.203125 156.933594 338.152344 155.925781 333.925781 155.925781 C 331.867188 155.875 329.867188 156.183594 327.917969 156.847656 C 325.972656 157.511719 324.199219 158.492188 322.605469 159.789062 C 318.679688 163.140625 316.828125 167.957031 315.894531 172.832031 L 315.523438 174.742188 L 310.144531 174.742188 L 308.457031 183.417969 L 313.835938 183.417969 L 307.703125 215.667969 L 319.285156 215.667969 L 325.421875 183.417969 L 333.382812 183.417969 L 334.949219 174.742188 Z M 362.925781 174.808594 L 352.445312 202.914062 L 352.273438 202.914062 L 349.417969 174.808594 L 337.25 174.808594 L 344.203125 212.316406 C 344.375 212.980469 344.300781 213.617188 343.980469 214.222656 C 342.46875 217.003906 340.316406 219.382812 337.703125 221.167969 C 335.695312 222.546875 333.507812 223.640625 331.199219 224.414062 L 334.398438 234.210938 C 338.695312 233.0625 342.460938 230.964844 345.695312 227.917969 C 350.964844 222.988281 355.835938 215.378906 360.832031 205.015625 L 374.953125 174.785156 L 362.921875 174.785156 Z M 362.925781 174.808594 " fill-opacity="1" fill-rule="nonzero"/></svg>