<svg xmlns:xlink="http://www.w3.org/1999/xlink" xmlns="http://www.w3.org/2000/svg" width="300"  height="150" ><symbol id="modules-play"><svg xmlns="http://www.w3.org/2000/svg" viewBox="0 0 20 20"><path d="M5 3.51L15.82 10 5 16.49v-13M4.33 1A1.33 1.33 0 003 2.33v15.34A1.33 1.33 0 004.33 19a1.3 1.3 0 00.67-.19l12.8-7.67a1.33 1.33 0 000-2.28L5 1.19A1.3 1.3 0 004.33 1z"></path></svg></symbol><symbol id="modules-pause"><svg xmlns="http://www.w3.org/2000/svg" viewBox="0 0 20 20"><path d="M5.5 19a1 1 0 01-1-1V2a1 1 0 012 0v16a1 1 0 01-1 1zm9.01 0a1 1 0 01-1-1V2a1 1 0 012 0v16a1 1 0 01-1 1z"></path></svg></symbol><symbol id="modules-arrow-right"><svg xmlns="http://www.w3.org/2000/svg" viewBox="0 0 20 20"><path d="M17.707 9.293l-5-5a1 1 0 00-1.414 1.414L14.586 9H3a1 1 0 100 2h11.586l-3.293 3.293a1 1 0 001.414 1.414l5-5a1 1 0 000-1.414z"></path></svg></symbol><symbol id="spot-drag-and-drop"><svg xmlns="http://www.w3.org/2000/svg" viewBox="0 0 45 45"><path d="M41 6a3 3 0 00-3-3H7a3 3 0 00-3 3v31a3 3 0 003 3h6a1 1 0 001-1v-1a1 1 0 00-1-1H7V12h31v2a1 1 0 001 1h1a1 1 0 001-1V6zM11 9H7V6h4zm3 0V6h24v3zm27 12v3a1 1 0 01-1 1h-1a1 1 0 01-1-1v-2h-3v-3h4a2 2 0 012 2zm-.87 10.67L27.5 25.81a1.5 1.5 0 00-2.1 1.68l3.13 14.33A1.5 1.5 0 0029.79 43H30a1.5 1.5 0 001.33-.8l3.07-5.8 5.61-2a1.5 1.5 0 00.14-2.78zm-7.29 2.1a1.5 1.5 0 00-.83.71l-1.43 2.69L29 29.81l6.53 3zM21 33h-3v-5h3zm3 7v1a1 1 0 01-1 1h-3a2 2 0 01-2-2v-4h3v3h2a1 1 0 011 1zm8-18h-5v-3h5zm-12-3h4v3h-3v3h-3v-4a2 2 0 012-2z"></path></svg></symbol><symbol id="spot-online-store"><svg xmlns="http://www.w3.org/2000/svg" viewBox="0 0 45 45"><path d="M41.75 8.67L38 3.11A2.5 2.5 0 0036 2H9a2.5 2.5 0 00-2 1.11L3.25 8.67A1.5 1.5 0 003 9.5v3a7.48 7.48 0 003 6v13A3.5 3.5 0 009.5 35H15v2.5a2.5 2.5 0 01-2.5 2.5H12a1.5 1.5 0 000 3h21a1.5 1.5 0 000-3h-.5a2.5 2.5 0 01-2.5-2.5V35h5.5a3.5 3.5 0 003.5-3.5v-13a7.48 7.48 0 003-6v-3a1.5 1.5 0 00-.25-.83zM9.3 5h26.4l2.66 4H6.64zm17.79 7a1.64 1.64 0 00-.09.5 4.5 4.5 0 01-9 0 1.64 1.64 0 00-.09-.5zM6 12h9.09a1.64 1.64 0 00-.09.5 4.5 4.5 0 01-9 0zm21.61 28H17.39a5.4 5.4 0 00.61-2.5V35h9v2.5a5.4 5.4 0 00.61 2.5zM36 31.5a.5.5 0 01-.5.5h-26a.5.5 0 01-.5-.5V19.85a7.41 7.41 0 001.5.15 7.49 7.49 0 006-3 7.47 7.47 0 0012 0 7.49 7.49 0 006 3 7.41 7.41 0 001.5-.15zM34.5 17a4.51 4.51 0 01-4.5-4.5 1.64 1.64 0 00-.09-.5H39v.5a4.51 4.51 0 01-4.5 4.5z"></path></svg></symbol><symbol id="spot-inventory-synced"><svg xmlns="http://www.w3.org/2000/svg" viewBox="0 0 45 45"><path d="M42.5 11.82v28a1.5 1.5 0 01-3 0v-27L23 5.46 6.5 12.8v27a1.5 1.5 0 01-3 0v-28a1.5 1.5 0 01.89-1.37l18-8a1.5 1.5 0 011.22 0l18 8a1.5 1.5 0 01.89 1.39zM32.5 28a1.5 1.5 0 00-1.5 1.5A8.48 8.48 0 0117.05 36h2.45a1.5 1.5 0 000-3h-6a1.5 1.5 0 00-1.5 1.5v6a1.5 1.5 0 003 0v-2.32a11.47 11.47 0 0019-8.68 1.5 1.5 0 00-1.5-1.5zM14 29.5A8.48 8.48 0 0127.95 23H25.5a1.5 1.5 0 000 3h6a1.5 1.5 0 001.5-1.5v-6a1.5 1.5 0 00-3 0v2.32a11.47 11.47 0 00-19 8.68 1.5 1.5 0 003 0z"></path></svg></symbol><symbol id="spot-group"><svg xmlns="http://www.w3.org/2000/svg" viewBox="0 0 45 45"><path d="M12.5 21A6.5 6.5 0 106 14.5a6.5 6.5 0 006.5 6.5zm0-10A3.5 3.5 0 119 14.5a3.5 3.5 0 013.5-3.5zM30 21a8 8 0 10-8-8 8 8 0 008 8zm0-13a5 5 0 11-5 5 5 5 0 015-5zm13 25.5v4a1.5 1.5 0 01-3 0v-4c0-3.77-2.52-6.5-6-6.5h-7.5a6.51 6.51 0 00-6.5 6.5v4a1.5 1.5 0 01-3 0v-4a9.51 9.51 0 019.5-9.5H34c5.13 0 9 4.08 9 9.5zm-27-8a1.5 1.5 0 01-1.5 1.5h-4A5.51 5.51 0 005 32.5V36a1.5 1.5 0 01-3 0v-3.5a8.51 8.51 0 018.5-8.5h4a1.5 1.5 0 011.5 1.5z"></path></svg></symbol><symbol id="modules-caret-right"><svg xmlns="http://www.w3.org/2000/svg" viewBox="-242.1 245.6 6.6 10.3"><path d="M-235.6 250.7l-5.1 5.2-1.4-1.4 3.7-3.8-3.7-3.7 1.4-1.4"></path></svg></symbol><symbol id="logos-shopify-bag-color"><svg xmlns="http://www.w3.org/2000/svg" viewBox="0 0 34.6 39.21"><path fill="#95BF47" d="M30.3 7.55a.37.37 0 00-.3-.32l-3-.05s-2.34-2.27-2.56-2.5a1 1 0 00-.86-.11l-1.17.37a7.8 7.8 0 00-.57-1.38 3.92 3.92 0 00-3.51-2.43H18L17.91 1a3.1 3.1 0 00-2.45-1c-1.9.05-3.79 1.43-5.32 3.86A15.26 15.26 0 008 9.4l-3.73 1.16c-1.1.35-1.14.38-1.28 1.41C2.88 12.76 0 35 0 35l24.14 4.18L34.6 36.6zm-9.08-2.24l-1.87.58a10.2 10.2 0 00-.58-3.46c1.45.27 2.15 1.9 2.45 2.88zm-3.13 1l-4 1.25a9.63 9.63 0 012-3.95 4.23 4.23 0 011.37-1 9.05 9.05 0 01.63 3.67zm-2.59-5a1.78 1.78 0 011.14.3 5.62 5.62 0 00-1.47 1.14A11.18 11.18 0 0012.67 8L9.36 9c.64-3.07 3.21-7.65 6.14-7.73z"></path><path fill="#5E8E3E" d="M30 7.23l-3-.05s-2.34-2.27-2.56-2.5a.59.59 0 00-.33-.15v34.68l10.46-2.6L30.3 7.55a.36.36 0 00-.3-.32z"></path><path fill="#FFFFFF" d="M18.34 12.61l-1.21 4.55a6.93 6.93 0 00-3-.52c-2.35.15-2.38 1.64-2.36 2 .13 2 5.48 2.47 5.78 7.24.24 3.74-2 6.31-5.19 6.51a7.8 7.8 0 01-6-2l.82-3.47s2.12 1.6 3.83 1.5a1.51 1.51 0 001.48-1.62c-.17-2.65-4.52-2.49-4.8-6.85-.23-3.67 2.18-7.38 7.49-7.72a6.56 6.56 0 013.16.38z"></path></svg></symbol><symbol id="modules-search"><svg xmlns="http://www.w3.org/2000/svg" viewBox="0 0 16 16"><path d="M15.552 13.62L11.27 9.333a6.083 6.083 0 00.925-3.23A6.099 6.099 0 100 6.103a6.098 6.098 0 009.342 5.165l4.28 4.283c.295.3.68.45 1.063.45h.005c.333 0 .674-.12.93-.373.258-.26.38-.6.38-.94 0-.382-.154-.768-.448-1.063zM9.498 6.102a3.41 3.41 0 01-3.4 3.402 3.41 3.41 0 01-3.4-3.402 3.412 3.412 0 013.4-3.404 3.41 3.41 0 013.4 3.403z"></path></svg></symbol><symbol id="modules-social-facebook"><svg xmlns="http://www.w3.org/2000/svg" viewBox="0 0 30 30"><path d="M15.6 30V19.4h5V15h-5v-3.1c0-1 .6-1.9 1.3-1.9h3.8V5.6h-3.8c-3.1 0-5.6 2.8-5.6 6.3V15H7.5v4.4h3.8v10.1C4.8 27.9 0 22 0 15 0 6.7 6.7 0 15 0s15 6.7 15 15c0 8.1-6.4 14.7-14.4 15z"></path></svg></symbol><symbol id="modules-social-twitter"><svg xmlns="http://www.w3.org/2000/svg" viewBox="0 0 30 30"><path d="M30 15c0 8.3-6.7 15-15 15S0 23.3 0 15 6.7 0 15 0s15 6.7 15 15zm-3.7-5.5c-.8.3-1.6.6-2.5.7.9-.5 1.5-1.4 1.8-2.4-.8.5-1.7.8-2.7 1-.8-.8-1.9-1.4-3.1-1.4-2.4 0-4.2 1.9-4.2 4.3 0 .3 0 .7.1 1-3.5-.2-6.7-1.9-8.8-4.5-.3.7-.6 1.4-.6 2.2 0 1.5.7 2.8 1.9 3.5-.7 0-1.4-.2-1.9-.5 0 2.1 1.5 3.8 3.4 4.2-.3.1-.7.1-1.1.1-.3 0-.6 0-.8-.1.5 1.7 2.1 2.8 4 2.9-1.5 1.1-3.3 1.9-5.3 1.9-.3 0-.7 0-1-.1 1.9 1.2 4.1 1.9 6.5 1.9 7.8 0 12.1-6.5 12.1-12.1v-.6c.9-.4 1.6-1.2 2.2-2z"></path></svg></symbol><symbol id="modules-social-youtube"><svg xmlns="http://www.w3.org/2000/svg" viewBox="0 0 30 30"><path d="M30 15c0 8.3-6.7 15-15 15S0 23.3 0 15 6.7 0 15 0s15 6.7 15 15zm-5.6 0c0-6.9 0-6.9-9.4-6.9s-9.4 0-9.4 6.9 0 6.9 9.4 6.9 9.4 0 9.4-6.9zm-11.9-3.7l6.3 3.8-6.3 3.8v-7.6z"></path></svg></symbol><symbol id="modules-social-instagram"><svg xmlns="http://www.w3.org/2000/svg" viewBox="0 0 18 18"><defs></defs><path fill-rule="evenodd" d="M9 0c5 0 9 4 9 9s-4 9-9 9-9-4-9-9 4-9 9-9zM6.7 3.5h4.7c1.8 0 3.2 1.4 3.2 3.1v4.7c0 1.7-1.4 3.1-3.2 3.1H6.7c-1.8 0-3.2-1.4-3.2-3.1V6.7c0-1.8 1.4-3.2 3.2-3.2zM9 6.2c1.6 0 2.9 1.3 2.9 2.9S10.6 12 9 12s-3-1.3-3-2.9 1.3-2.9 3-2.9zm0 1.2c.9 0 1.7.8 1.7 1.7 0 .9-.8 1.7-1.7 1.7-.9 0-1.7-.8-1.7-1.7 0-.9.7-1.7 1.7-1.7zm2.8-1.7c.3 0 .6.2.6.6 0 .3-.2.6-.6.6-.3 0-.6-.2-.6-.6 0-.4.3-.6.6-.6zm-4.6-1h3.7c1.4 0 2.5 1.1 2.5 2.5v3.7c0 1.4-1.1 2.5-2.5 2.5H7.2c-1.4 0-2.5-1.1-2.5-2.5V7.2c-.1-1.4 1.1-2.5 2.5-2.5z" clip-rule="evenodd"></path></svg>
</symbol><symbol id="modules-social-linkedin"><svg xmlns="http://www.w3.org/2000/svg" viewBox="0 0 30 30"><path d="M30 15c0 8.3-6.7 15-15 15S0 23.3 0 15 6.7 0 15 0s15 6.7 15 15zM11.3 7.8c0-1.2-1-2.2-2.5-2.2s-2.5.9-2.5 2.2c0 1.2 1 2.2 2.5 2.2s2.5-1 2.5-2.2zm-.7 4.1H6.9v10.6h3.8V11.9zm13.8 5c0-3.4-1.7-5.6-4.4-5.6-1.5 0-2.6.9-3.1 2.3l-.1-1.6H13c0 .4.1 2.5.1 2.5v8.1h3.8V17c0-1.5.7-2.5 1.8-2.5s1.9.6 1.9 2.5v5.6h3.8v-5.7z"></path></svg></symbol><symbol id="modules-social-pinterest"><svg xmlns="http://www.w3.org/2000/svg" viewBox="0 0 30 30"><path d="M15 30c-1.5 0-2.9-.2-4.3-.6.6-.9 1.2-2 1.5-3.2.2-.7 1-4.1 1-4.1.5 1 2 1.9 3.7 1.9 4.8 0 8.1-4.4 8.1-10.3 0-4.4-3.8-8.6-9.5-8.6-7.1-.1-10.6 5-10.6 9.3 0 2.6 1 4.9 3.1 5.7.3.1.7 0 .8-.4.1-.2.2-.9.3-1.2.1-.4 0-.5-.2-.8-.6-.7-1-1.6-1-3 0-3.8 2.8-7.2 7.4-7.2 4 0 6.2 2.5 6.2 5.8 0 4.3-1.9 8-4.8 8-1.6 0-2.7-1.3-2.4-2.9.5-1.9 1.3-4 1.3-5.3 0-1.2-.7-2.3-2-2.3-1.6 0-2.9 1.7-2.9 3.9 0 1.4.5 2.4.5 2.4S9.5 24 9.3 25.3c-.3 1.1-.4 2.4-.3 3.5-5.3-2.4-9-7.7-9-13.8C0 6.7 6.7 0 15 0s15 6.7 15 15-6.7 15-15 15z"></path></svg></symbol><symbol id="spot-global"><svg xmlns="http://www.w3.org/2000/svg" viewBox="0 0 45 45"><path d="M22.5 2A20.5 20.5 0 1043 22.5 20.52 20.52 0 0022.5 2zm-4.23 28.79A33.67 33.67 0 0022 31a34.54 34.54 0 004.76-.33 30.45 30.45 0 01-4.26 9 30.41 30.41 0 01-4.23-8.88zM22 28a29.86 29.86 0 01-4.47-.34A31 31 0 0117 22a29.87 29.87 0 01.36-4.64A30.13 30.13 0 0122 17a31 31 0 015.66.53A29.85 29.85 0 0128 22a31 31 0 01-.5 5.5 31 31 0 01-5.5.5zm-7.64-1a25.22 25.22 0 01-9.15-4.5 24.89 24.89 0 019-4.48A33.56 33.56 0 0014 22a34.61 34.61 0 00.36 5zM22.5 5.21a25.25 25.25 0 014.5 9.15 34.61 34.61 0 00-5-.36 33.58 33.58 0 00-4 .24 25.24 25.24 0 014.5-9.03zm8.29 13.06a30.41 30.41 0 018.89 4.23 30.46 30.46 0 01-9 4.26A34.54 34.54 0 0031 22a33.67 33.67 0 00-.21-3.73zm8.82.59A33.75 33.75 0 0030.26 15a29.2 29.2 0 00-3.89-9.56 17.54 17.54 0 0113.24 13.42zm-21-13.41a29.16 29.16 0 00-3.85 9.35 29.16 29.16 0 00-9.35 3.85A17.54 17.54 0 0118.64 5.44zM5.44 26.36a29.2 29.2 0 009.56 3.9 33.75 33.75 0 003.86 9.36A17.54 17.54 0 015.44 26.36zm20.7 13.25a33.73 33.73 0 003.91-9.56 33.73 33.73 0 009.56-3.91 17.55 17.55 0 01-13.47 13.47z"></path></svg></symbol><symbol id="modules-nav-arrow-down"><svg xmlns="http://www.w3.org/2000/svg" viewBox="0 0 10 5"><path d="M0 0l5 5 5-5H0z"></path></svg></symbol><symbol id="logos-shopify-black"><svg xmlns="http://www.w3.org/2000/svg" viewBox="0 0 608 173.7"><path fill="#95BF47" d="M130.7 32.9c-.1-.9-.9-1.3-1.5-1.4-.6-.1-12.6-.2-12.6-.2s-10.1-9.8-11.1-10.8-2.9-.7-3.7-.5c0 0-1.9.6-5.1 1.6-.5-1.7-1.3-3.8-2.4-5.9-3.6-6.9-8.8-10.5-15.2-10.5-.4 0-.9 0-1.3.1-.2-.2-.4-.4-.6-.7-2.8-3-6.3-4.4-10.5-4.3-8.2.2-16.3 6.1-23 16.7-4.7 7.4-8.2 16.7-9.2 23.9-9.4 2.9-16 4.9-16.1 5-4.7 1.5-4.9 1.6-5.5 6.1C12.4 55.3 0 151.4 0 151.4l104.1 18 45.1-11.2S130.8 33.7 130.7 32.9zm-39.2-9.7c-2.4.7-5.1 1.6-8.1 2.5-.1-4.1-.6-9.9-2.5-14.9 6.3 1.2 9.3 8.2 10.6 12.4zM78 27.4c-5.5 1.7-11.4 3.5-17.4 5.4 1.7-6.4 4.9-12.8 8.8-17 1.5-1.6 3.5-3.3 5.9-4.3 2.3 4.7 2.7 11.4 2.7 15.9zM66.8 5.8c1.9 0 3.5.4 4.9 1.3-2.2 1.1-4.4 2.8-6.4 5-5.2 5.6-9.2 14.2-10.8 22.6-5 1.5-9.8 3-14.3 4.4 3-13.2 14-32.9 26.6-33.3z"></path><path fill="#5E8E3E" d="M129.2 31.5c-.6-.1-12.6-.2-12.6-.2s-10.1-9.8-11.1-10.8c-.4-.4-.9-.6-1.4-.6v149.5l45.1-11.2S130.8 33.8 130.7 32.9c-.2-.9-.9-1.3-1.5-1.4z"></path><path fill="#FFFFFF" d="M79.1 54.7l-5.2 19.6s-5.8-2.7-12.8-2.2c-10.2.6-10.3 7-10.2 8.7.6 8.8 23.6 10.7 24.9 31.2 1 16.2-8.6 27.2-22.4 28.1-16.6 1-25.7-8.7-25.7-8.7l3.5-14.9s9.2 6.9 16.5 6.5c4.8-.3 6.5-4.2 6.3-7-.7-11.4-19.5-10.8-20.7-29.5-1-15.8 9.4-31.8 32.3-33.3 9-.8 13.5 1.5 13.5 1.5z"></path><path d="M210.3 96.5c-5.2-2.8-7.9-5.2-7.9-8.5 0-4.2 3.7-6.9 9.6-6.9 6.8 0 12.8 2.8 12.8 2.8l4.8-14.6s-4.4-3.4-17.3-3.4c-18 0-30.5 10.3-30.5 24.8 0 8.2 5.8 14.5 13.6 19 6.3 3.6 8.5 6.1 8.5 9.9 0 3.9-3.1 7-9 7-8.7 0-16.9-4.5-16.9-4.5l-5.1 14.6s7.6 5.1 20.3 5.1c18.5 0 31.8-9.1 31.8-25.5.1-8.9-6.6-15.2-14.7-19.8zm73.8-30.8c-9.1 0-16.3 4.3-21.8 10.9l-.3-.1 7.9-41.4h-20.6l-20 105.3h20.6l6.9-36c2.7-13.6 9.7-22 16.3-22 4.6 0 6.4 3.1 6.4 7.6 0 2.8-.3 6.3-.9 9.1l-7.8 41.2h20.6l8.1-42.6c.9-4.5 1.5-9.9 1.5-13.4 0-11.5-6.2-18.6-16.9-18.6zm63.5 0c-24.8 0-41.2 22.4-41.2 47.4 0 16 9.9 28.8 28.4 28.8 24.3 0 40.8-21.8 40.8-47.4-.1-14.7-8.8-28.8-28-28.8zm-10.2 60.4c-7 0-10-6-10-13.4 0-11.8 6.1-31.1 17.3-31.1 7.3 0 9.7 6.3 9.7 12.4 0 12.7-6.1 32.1-17 32.1zm90.8-60.4c-13.9 0-21.8 12.2-21.8 12.2h-.3l1.2-11.1h-18.2c-.9 7.5-2.5 18.8-4.2 27.3l-14.3 75.4h20.6l5.7-30.5h.4s4.2 2.7 12.1 2.7c24.2 0 40-24.8 40-49.9.1-13.7-6.1-26.1-21.2-26.1zm-19.7 60.7c-5.4 0-8.5-3-8.5-3l3.4-19.3c2.4-12.8 9.1-21.4 16.3-21.4 6.3 0 8.2 5.8 8.2 11.4 0 13.3-7.9 32.3-19.4 32.3zm70.4-90.2c-6.6 0-11.8 5.2-11.8 12 0 6.1 3.9 10.3 9.7 10.3h.3c6.4 0 12-4.3 12.1-12 0-6-4-10.3-10.3-10.3zm-28.8 104.2h20.6l14-73h-20.8zm87-73.2h-14.3l.7-3.4c1.2-7 5.4-13.3 12.2-13.3 3.7 0 6.6 1 6.6 1l4-16.1s-3.6-1.8-11.2-1.8c-7.3 0-14.6 2.1-20.2 6.9-7 6-10.3 14.6-12 23.3l-.6 3.4h-9.6l-3 15.5h9.6l-10.9 57.7H509l10.9-57.7h14.2l3-15.5zm49.6.2s-12.9 32.5-18.7 50.2h-.3c-.4-5.7-5.1-50.2-5.1-50.2H541l12.4 67.1c.3 1.5.1 2.4-.4 3.4-2.4 4.6-6.4 9.1-11.2 12.4-3.9 2.8-8.2 4.6-11.7 5.8l5.7 17.5c4.2-.9 12.8-4.3 20.2-11.2 9.4-8.8 18.1-22.4 27-40.9l25.2-54.1h-21.5z"></path></svg></symbol><symbol id="modules-caret-down"><svg xmlns="http://www.w3.org/2000/svg" baseProfile="tiny" viewBox="0 0 10.289 6.563"><path d="M5.212 6.563L0 1.423 1.404 0l3.788 3.735L8.865.01l1.424 1.404"></path></svg></symbol><symbol id="modules-mobile-hamburger"><svg xmlns="http://www.w3.org/2000/svg" viewBox="0 0 20 20"><path d="M19 11H1a1 1 0 110-2h18a1 1 0 110 2zm0-7H1a1 1 0 110-2h18a1 1 0 110 2zm0 14H1a1 1 0 110-2h18a1 1 0 110 2z"></path></svg></symbol><symbol id="modules-cancel"><svg xmlns="http://www.w3.org/2000/svg" viewBox="0 0 20 20"><path d="M11.414 10l6.293-6.293a1 1 0 00-1.414-1.414L10 8.586 3.707 2.293a1 1 0 00-1.414 1.414L8.586 10l-6.293 6.293a1 1 0 001.414 1.414L10 11.414l6.293 6.293a.996.996 0 001.414 0 1 1 0 000-1.414L11.414 10z"></path></svg></symbol></svg>